<svg width="37" height="25" viewBox="0 0 37 25" fill="none" xmlns="http://www.w3.org/2000/svg">
<path d="M33.812 0.351562H2.84746C2.16311 0.351563 1.50678 0.60893 1.02286 1.06705C0.53895 1.52516 0.26709 2.1465 0.26709 2.79438V22.3369C0.26709 22.9848 0.53895 23.6061 1.02286 24.0642C1.50678 24.5223 2.16311 24.7797 2.84746 24.7797H33.812C34.4963 24.7797 35.1526 24.5223 35.6366 24.0642C36.1205 23.6061 36.3923 22.9848 36.3923 22.3369V2.79438C36.3923 2.1465 36.1205 1.52516 35.6366 1.06705C35.1526 0.60893 34.4963 0.351563 33.812 0.351562V0.351562ZM30.9735 2.79438L18.3297 11.0755L5.68588 2.79438H30.9735ZM2.84746 22.3369V3.90586L17.5943 13.5672C17.8103 13.709 18.0669 13.785 18.3297 13.785C18.5926 13.785 18.8491 13.709 19.0651 13.5672L33.812 3.90586V22.3369H2.84746Z" fill="#F8F8F8"/>
</svg>
