<svg width="29" height="27" viewBox="0 0 29 27" fill="none" xmlns="http://www.w3.org/2000/svg">
<path fill-rule="evenodd" clip-rule="evenodd" d="M14.2788 0.351562C6.60223 0.351562 0.384521 6.41 0.384521 13.89C0.384521 19.8807 4.36177 24.9407 9.88476 26.7345C10.5795 26.853 10.84 26.4469 10.84 26.0915C10.84 25.7699 10.8226 24.7038 10.8226 23.5699C7.33168 24.1961 6.42855 22.7407 6.15067 21.9792C5.99435 21.5899 5.31701 20.3884 4.7265 20.0669C4.2402 19.813 3.54548 19.1869 4.70913 19.17C5.80331 19.153 6.58486 20.1515 6.84538 20.5576C8.09587 22.6053 10.0932 22.0299 10.8921 21.6746C11.0137 20.7946 11.3784 20.2023 11.7779 19.8638C8.68638 19.5253 5.45595 18.3577 5.45595 13.1792C5.45595 11.7069 5.99435 10.4885 6.88012 9.54076C6.74117 9.2023 6.25487 7.81461 7.01906 5.95308C7.01906 5.95308 8.18271 5.5977 10.84 7.34077C11.9515 7.03615 13.1326 6.88385 14.3136 6.88385C15.4946 6.88385 16.6756 7.03615 17.7872 7.34077C20.4444 5.58077 21.6081 5.95308 21.6081 5.95308C22.3723 7.81461 21.886 9.2023 21.747 9.54076C22.6328 10.4885 23.1712 11.69 23.1712 13.1792C23.1712 18.3746 19.9234 19.5253 16.8319 19.8638C17.3356 20.2869 17.7698 21.0992 17.7698 22.3684C17.7698 24.1792 17.7524 25.6346 17.7524 26.0915C17.7524 26.4469 18.0129 26.8699 18.7077 26.7345C21.4659 25.8272 23.8627 24.0998 25.5606 21.7957C27.2586 19.4916 28.1723 16.7266 28.1732 13.89C28.1732 6.41 21.9555 0.351562 14.2788 0.351562Z" fill="#F8F8F8"/>
</svg>
