<svg width="29" height="27" viewBox="0 0 29 27" fill="none" xmlns="http://www.w3.org/2000/svg">
<path fill-rule="evenodd" clip-rule="evenodd" d="M8.59942 0.430789C10.0811 0.365967 10.5535 0.351562 14.3277 0.351562C18.1019 0.351562 18.5743 0.367168 20.0547 0.430789C21.535 0.49441 22.5455 0.718886 23.4297 1.04419C24.3556 1.37671 25.1956 1.89648 25.8903 2.56871C26.5976 3.22773 27.1433 4.02479 27.4919 4.90589C27.8355 5.74617 28.0704 6.70649 28.1386 8.11096C28.2068 9.52143 28.222 9.97038 28.222 13.556C28.222 17.1428 28.2056 17.5917 28.1386 18.9998C28.0717 20.4043 27.8355 21.3646 27.4919 22.2049C27.1433 23.0861 26.5967 23.8845 25.8903 24.5445C25.1956 25.2167 24.3556 25.7353 23.4297 26.0666C22.5455 26.3931 21.535 26.6164 20.0572 26.6812C18.5743 26.746 18.1019 26.7604 14.3277 26.7604C10.5535 26.7604 10.0811 26.7448 8.59942 26.6812C7.12157 26.6176 6.11107 26.3931 5.22689 26.0666C4.29966 25.7352 3.45956 25.2158 2.76507 24.5445C2.0582 23.885 1.51119 23.087 1.16217 22.2061C0.819864 21.3658 0.584924 20.4055 0.516716 19.001C0.448507 17.5905 0.43335 17.1416 0.43335 13.556C0.43335 9.96918 0.44977 9.52023 0.516716 8.11336C0.583661 6.70649 0.819864 5.74617 1.16217 4.90589C1.5117 4.02489 2.05914 3.2269 2.76633 2.5675C3.45984 1.89588 4.29909 1.37604 5.22563 1.04419C6.10981 0.718886 7.12031 0.495611 8.59816 0.430789H8.59942ZM19.9422 2.80759C18.477 2.74396 18.0375 2.73076 14.3277 2.73076C10.6179 2.73076 10.1783 2.74396 8.7131 2.80759C7.35777 2.8664 6.62264 3.08128 6.13255 3.26254C5.48457 3.50262 5.021 3.78711 4.5347 4.24927C4.07372 4.67547 3.71895 5.19432 3.49642 5.76778C3.30568 6.23353 3.07959 6.93217 3.01769 8.2202C2.95075 9.61266 2.93685 10.0304 2.93685 13.556C2.93685 17.0816 2.95075 17.4993 3.01769 18.8918C3.07959 20.1798 3.30568 20.8784 3.49642 21.3442C3.71873 21.9168 4.07366 22.4366 4.5347 22.8627C4.98311 23.3009 5.53004 23.6382 6.13255 23.8494C6.62264 24.0307 7.35777 24.2456 8.7131 24.3044C10.1783 24.368 10.6166 24.3812 14.3277 24.3812C18.0387 24.3812 18.477 24.368 19.9422 24.3044C21.2976 24.2456 22.0327 24.0307 22.5228 23.8494C23.1708 23.6094 23.6343 23.3249 24.1206 22.8627C24.5817 22.4366 24.9366 21.9168 25.1589 21.3442C25.3497 20.8784 25.5758 20.1798 25.6377 18.8918C25.7046 17.4993 25.7185 17.0816 25.7185 13.556C25.7185 10.0304 25.7046 9.61266 25.6377 8.2202C25.5758 6.93217 25.3497 6.23353 25.1589 5.76778C24.9063 5.15197 24.6069 4.71142 24.1206 4.24927C23.6721 3.81121 23.1262 3.47406 22.5228 3.26254C22.0327 3.08128 21.2976 2.8664 19.9422 2.80759V2.80759ZM12.553 17.6265C13.5441 18.0186 14.6477 18.0716 15.6753 17.7763C16.7029 17.481 17.5908 16.8558 18.1873 16.0075C18.7837 15.1592 19.0518 14.1404 18.9457 13.1252C18.8396 12.1099 18.3659 11.1612 17.6055 10.4409C17.1207 9.98056 16.5346 9.62804 15.8893 9.40877C15.244 9.1895 14.5556 9.10893 13.8736 9.17286C13.1916 9.23678 12.533 9.44362 11.9452 9.77848C11.3574 10.1133 10.855 10.5679 10.4743 11.1094C10.0935 11.6509 9.84383 12.2659 9.7432 12.9101C9.64256 13.5543 9.69347 14.2118 9.89228 14.835C10.0911 15.4583 10.4328 16.0319 10.8929 16.5146C11.353 16.9973 11.9199 17.3771 12.553 17.6265ZM9.27772 8.75678C9.94089 8.12654 10.7282 7.6266 11.5947 7.28552C12.4611 6.94444 13.3898 6.76888 14.3277 6.76888C15.2655 6.76888 16.1942 6.94443 17.0607 7.28552C17.9272 7.6266 18.7145 8.12654 19.3776 8.75678C20.0408 9.38702 20.5669 10.1352 20.9258 10.9587C21.2847 11.7821 21.4694 12.6647 21.4694 13.556C21.4694 14.4473 21.2847 15.3298 20.9258 16.1533C20.5668 16.9767 20.0408 17.725 19.3776 18.3552C18.0383 19.628 16.2218 20.3431 14.3277 20.3431C12.4336 20.3431 10.617 19.628 9.27772 18.3552C7.93839 17.0824 7.18596 15.356 7.18596 13.556C7.18596 11.7559 7.93839 10.0296 9.27772 8.75678V8.75678ZM23.0533 7.77965C23.2176 7.63232 23.3492 7.45516 23.4402 7.25865C23.5312 7.06213 23.5798 6.85026 23.5831 6.63558C23.5864 6.42091 23.5443 6.20778 23.4594 6.00883C23.3744 5.80988 23.2484 5.62914 23.0886 5.47733C22.9289 5.32551 22.7387 5.2057 22.5294 5.12498C22.32 5.04427 22.0957 5.00429 21.8698 5.00742C21.644 5.01055 21.421 5.05672 21.2142 5.1432C21.0075 5.22968 20.821 5.35471 20.666 5.51089C20.3645 5.81463 20.1995 6.21807 20.2059 6.63558C20.2123 7.05309 20.3896 7.4518 20.7003 7.74705C21.011 8.04231 21.4305 8.21087 21.8698 8.21696C22.3092 8.22304 22.7337 8.06617 23.0533 7.77965V7.77965Z" fill="#F8F8F8"/>
</svg>
