<svg width="29" height="27" viewBox="0 0 29 27" fill="none" xmlns="http://www.w3.org/2000/svg">
<path fill-rule="evenodd" clip-rule="evenodd" d="M11.1429 9.57301H16.3032V12.0158C17.0466 10.6109 18.9529 9.34854 21.8165 9.34854C27.3062 9.34854 28.6094 12.1452 28.6094 17.2765V26.7797H23.0517V18.4451C23.0517 15.5229 22.3084 13.875 20.416 13.875C17.7913 13.875 16.7006 15.651 16.7006 18.4437V26.7797H11.1429V9.57301V9.57301ZM1.61278 26.5552H7.17051V9.34854H1.61278V26.5552V26.5552ZM7.96665 3.73798C7.96686 4.18069 7.87447 4.61902 7.69486 5.0275C7.51525 5.43599 7.252 5.80647 6.92041 6.11742C6.24848 6.75205 5.33897 7.10729 4.39164 7.10511C3.44598 7.1045 2.53857 6.75017 1.86565 6.11874C1.53526 5.80673 1.2729 5.43583 1.09361 5.0273C0.914312 4.61876 0.821605 4.18062 0.820801 3.73798C0.820801 2.84404 1.19595 1.98839 1.86704 1.35722C2.53937 0.724937 3.44716 0.370455 4.39303 0.37085C5.34062 0.37085 6.24931 0.726049 6.92041 1.35722C7.59011 1.98839 7.96665 2.84404 7.96665 3.73798Z" fill="#F8F8F8"/>
</svg>
